<?xml version="1.0" standalone="no"?>
<!DOCTYPE svg PUBLIC "-//W3C//DTD SVG 20010904//EN"
 "http://www.w3.org/TR/2001/REC-SVG-20010904/DTD/svg10.dtd">
<svg version="1.0" xmlns="http://www.w3.org/2000/svg"
 width="864.000000pt" height="864.000000pt" viewBox="0 0 864.000000 864.000000"
 preserveAspectRatio="xMidYMid meet">

<g transform="translate(0.000000,864.000000) scale(0.100000,-0.100000)"
fill="#000000" stroke="none">
<path d="M5567 7738 c-62 -13 -318 -123 -500 -214 -425 -213 -677 -437 -845
-754 -99 -185 -152 -389 -158 -600 -8 -320 91 -638 319 -1020 56 -93 204 -319
220 -335 5 -5 -22 51 -60 125 -237 460 -337 758 -357 1058 -14 212 44 473 149
667 163 301 402 509 820 715 156 76 393 180 413 180 12 0 166 -401 221 -576
130 -414 145 -699 56 -1055 -72 -283 -234 -624 -399 -839 -66 -86 -64 -91 8
-15 240 255 428 593 522 938 97 358 66 715 -105 1223 -68 199 -167 454 -183
470 -27 27 -82 41 -121 32z"/>
<path d="M6201 6066 c-125 -308 -284 -618 -436 -846 -390 -587 -924 -979
-1575 -1156 -87 -24 -99 -30 -70 -32 57 -6 247 17 368 44 650 145 1178 582
1512 1253 88 176 162 374 210 564 36 142 75 345 68 352 -2 2 -36 -79 -77 -179z"/>
<path d="M3394 5705 c-123 -26 -256 -94 -401 -203 -92 -68 -165 -134 -387
-349 -164 -159 -180 -177 -179 -208 2 -52 29 -98 116 -191 286 -305 543 -456
912 -535 96 -21 136 -24 315 -23 182 0 219 3 330 27 214 45 393 113 580 220
83 48 207 135 228 160 6 7 -57 -21 -141 -63 -322 -160 -631 -230 -967 -217
-328 13 -611 110 -859 295 -79 58 -296 263 -313 295 -9 17 11 41 148 179 327
328 500 454 683 494 87 20 208 15 286 -11 190 -63 378 -215 563 -454 40 -51
72 -90 72 -87 0 12 -105 192 -149 256 -59 84 -189 220 -268 280 -168 128 -376
177 -569 135z"/>
<path d="M2028 3920 c-193 -33 -348 -161 -453 -375 -74 -150 -95 -237 -102
-410 -6 -162 10 -264 55 -355 29 -59 54 -73 71 -41 9 16 4 34 -23 91 -88 183
-69 441 49 669 79 151 183 258 310 318 53 25 71 28 160 28 91 0 104 -2 146
-27 132 -78 203 -270 216 -590 20 -499 -136 -995 -342 -1089 -134 -62 -273 28
-262 169 4 57 -8 78 -41 68 -10 -4 -26 -22 -35 -41 -68 -142 81 -286 282 -272
101 7 139 20 214 71 123 84 233 250 297 451 52 160 206 612 240 705 50 136
126 285 168 329 49 52 93 57 116 13 52 -101 49 -390 -10 -912 -38 -331 -39
-347 -23 -366 18 -22 56 -35 83 -28 20 5 23 14 34 135 34 359 227 839 401
1002 31 29 59 47 74 47 75 0 84 -111 36 -465 -27 -197 -33 -274 -33 -430 -1
-172 1 -196 22 -255 48 -141 156 -209 279 -179 71 18 162 114 230 244 49 94
53 98 53 63 0 -52 34 -153 64 -192 54 -72 167 -109 253 -85 87 24 176 134 253
310 18 41 35 76 37 79 3 3 1 -63 -2 -146 -7 -146 -7 -152 14 -173 13 -13 34
-21 56 -21 44 0 60 25 69 101 3 31 27 121 52 200 111 346 220 560 306 605 29
15 32 15 57 -4 44 -32 53 -91 48 -312 -3 -107 -13 -259 -22 -336 -10 -78 -15
-153 -11 -167 7 -29 54 -52 86 -42 33 11 45 39 104 243 119 410 225 621 340
676 48 22 73 20 103 -10 25 -25 25 -28 20 -127 -3 -56 -17 -178 -31 -272 -27
-180 -33 -340 -16 -422 26 -117 94 -192 195 -213 126 -26 222 44 321 234 l51
98 6 -55 c11 -107 69 -198 147 -230 201 -83 336 48 489 474 49 138 52 169 17
169 -21 0 -28 -10 -51 -72 -111 -296 -204 -461 -287 -504 -15 -8 -41 -14 -58
-14 -27 0 -34 6 -50 43 -27 57 -26 242 0 442 35 264 36 269 11 294 -22 22 -70
28 -101 11 -20 -11 -55 -108 -90 -250 -23 -92 -103 -291 -152 -380 -69 -124
-136 -190 -190 -190 -87 0 -109 179 -67 543 21 192 20 284 -7 359 -36 103
-113 154 -216 145 -112 -10 -212 -98 -295 -262 -26 -52 -51 -95 -54 -95 -3 0
-9 23 -12 51 -7 57 -47 152 -80 188 -55 59 -175 88 -236 56 -77 -39 -171 -191
-246 -395 -39 -107 -39 -74 1 78 23 88 24 95 9 118 -27 41 -89 56 -139 33 -32
-15 -52 -67 -70 -179 -24 -145 -155 -441 -238 -534 -64 -73 -127 -96 -161 -58
-44 49 -47 249 -7 527 26 184 26 220 -2 239 -28 20 -67 20 -95 1 -22 -16 -65
-133 -93 -255 -7 -30 -31 -98 -52 -150 -108 -260 -220 -410 -305 -410 -45 0
-62 31 -72 129 -9 85 -9 92 14 439 23 343 17 494 -22 612 -56 168 -202 187
-333 43 -69 -76 -104 -128 -178 -268 -35 -66 -61 -107 -57 -92 10 51 6 351 -6
407 -25 115 -61 169 -137 202 -103 46 -201 -18 -291 -191 -49 -94 -104 -232
-140 -354 l-27 -87 -12 137 c-34 405 -198 650 -465 693 -70 11 -92 11 -159 0z"/>
<path d="M4436 3430 c-65 -57 -85 -143 -45 -194 17 -21 29 -26 65 -26 60 0
100 22 124 70 35 68 21 139 -31 166 -43 22 -75 17 -113 -16z"/>
<path d="M6782 3435 c-39 -33 -62 -83 -62 -137 0 -55 21 -85 66 -94 102 -19
196 105 152 201 -25 56 -107 72 -156 30z"/>
</g>
</svg>
